<?xml version="1.0" encoding="iso-8859-1"?>
<!-- Generator: Adobe Illustrator 19.0.0, SVG Export Plug-In . SVG Version: 6.00 Build 0)  -->
<svg version="1.1" id="Layer_1" xmlns="http://www.w3.org/2000/svg" xmlns:xlink="http://www.w3.org/1999/xlink" x="0px" y="0px"
	 viewBox="0 0 435 435" style="enable-background:new 0 0 435 435;" xml:space="preserve">
<g>
	<polygon style="fill:#005ECE;" points="343.333,42.5 343.333,97.5 303.333,97.5 303.333,42.5 217.5,42.5 217.5,142.5 435,142.5 
		435,42.5 	"/>
	<path style="fill:#9BC9FF;" d="M217.5,202.5h30v60h-30v30h30v60h-30v60H435v-270H217.5V202.5z M277.5,202.5h60v60h-60V202.5z
		 M277.5,292.5h60v60h-60V292.5z"/>
	<path style="fill:#BDDBFF;" d="M187.5,352.5v-60h30v-30h-30v-60h30v-60H0v270h217.5v-60H187.5z M157.5,352.5h-60v-60h60V352.5z
		 M157.5,262.5h-60v-60h60V262.5z"/>
	<polygon style="fill:#2488FF;" points="217.5,42.5 131.667,42.5 131.667,102.5 91.667,102.5 91.667,42.5 0,42.5 0,142.5 
		217.5,142.5 	"/>
	<rect x="91.667" y="22.5" style="fill:#46F8FF;" width="40" height="80"/>
	<rect x="303.333" y="22.5" style="fill:#00E7F0;" width="40" height="75"/>
	<rect x="97.5" y="292.5" style="fill:#2488FF;" width="60" height="60"/>
	<rect x="187.5" y="292.5" style="fill:#005ECE;" width="60" height="60"/>
	<rect x="277.5" y="292.5" style="fill:#005ECE;" width="60" height="60"/>
	<rect x="187.5" y="202.5" style="fill:#005ECE;" width="60" height="60"/>
	<rect x="277.5" y="202.5" style="fill:#005ECE;" width="60" height="60"/>
	<rect x="97.5" y="202.5" style="fill:#2488FF;" width="60" height="60"/>
</g>
<g>
</g>
<g>
</g>
<g>
</g>
<g>
</g>
<g>
</g>
<g>
</g>
<g>
</g>
<g>
</g>
<g>
</g>
<g>
</g>
<g>
</g>
<g>
</g>
<g>
</g>
<g>
</g>
<g>
</g>
</svg>
