<svg viewBox="0 0 512 512" xmlns="http://www.w3.org/2000/svg"><path d="m432.59375 33.269531c-47.417969-21.453125-110.132812-33.269531-176.59375-33.269531s-129.179688 11.816406-176.597656 33.269531c-51.203125 23.171875-79.402344 55.40625-79.402344 90.773438 0 35.367187 28.199219 67.605469 79.402344 90.773437 47.421875 21.457032 110.136718 33.273438 176.597656 33.273438s129.175781-11.816406 176.597656-33.273438c51.203125-23.167968 79.402344-55.40625 79.402344-90.773437 0-35.367188-28.199219-67.601563-79.40625-90.773438zm0 0" fill="#d7e9fd"/><path d="m432.59375 33.269531c-47.417969-21.453125-110.132812-33.269531-176.59375-33.269531v248.089844c66.460938 0 129.175781-11.816406 176.59375-33.273438 51.207031-23.167968 79.40625-55.40625 79.40625-90.773437 0-35.367188-28.199219-67.601563-79.40625-90.773438zm0 0" fill="#b4dafe"/><path d="m256 183.820312c-65.246094 0-175.667969-12.589843-175.667969-59.777343s110.421875-59.777344 175.667969-59.777344 175.664062 12.589844 175.664062 59.777344-110.417968 59.777343-175.664062 59.777343zm-145.453125-59.777343c1.96875 3.074219 12.269531 11.320312 41.253906 18.644531 28.425781 7.179688 65.429688 11.132812 104.199219 11.132812 38.765625 0 75.769531-3.953124 104.195312-11.132812 28.984376-7.324219 39.285157-15.570312 41.253907-18.644531-1.96875-3.070313-12.269531-11.316407-41.253907-18.640625-28.425781-7.179688-65.429687-11.136719-104.195312-11.136719-38.769531 0-75.773438 3.957031-104.199219 11.136719-28.984375 7.324218-39.285156 15.570312-41.253906 18.640625zm0 0" fill="#7cc8f0"/><path d="m456.832031 218.089844h-401.664062c-30.421875 0-55.167969 24.746094-55.167969 55.164062v183.582032c0 30.417968 24.746094 55.164062 55.167969 55.164062h401.664062c30.417969 0 55.167969-24.746094 55.167969-55.164062v-183.582032c0-30.417968-24.75-55.164062-55.167969-55.164062zm0 0" fill="#ff5b5b"/><path d="m456.832031 218.089844h-200.832031v293.910156h200.832031c30.417969 0 55.167969-24.746094 55.167969-55.164062v-183.582032c0-30.417968-24.75-55.164062-55.167969-55.164062zm0 0" fill="#ff3980"/><path d="m256 218.089844c-81.03125 0-146.957031 65.921875-146.957031 146.953125s65.925781 146.957031 146.957031 146.957031 146.953125-65.925781 146.953125-146.957031c.003906-81.03125-65.921875-146.953125-146.953125-146.953125zm0 0" fill="#fdf6c8"/><path d="m256 218.089844v293.910156c81.03125 0 146.953125-65.925781 146.953125-146.957031.003906-81.03125-65.921875-146.953125-146.953125-146.953125zm0 0" fill="#ffde8d"/><g fill="#ca6d36"><path d="m256 336.703125c-45.464844 0-82.449219 36.984375-82.449219 82.445313 0 8.03125 2.320313 15.832031 6.71875 22.550781 7.65625 11.695312 20.554688 18.679687 34.511719 18.679687 10.136719 0 17.964844-2.320312 24.871094-4.367187 5.664062-1.679688 10.558594-3.128907 16.347656-3.128907 5.785156 0 10.679688 1.449219 16.34375 3.128907 6.90625 2.046875 14.730469 4.367187 24.871094 4.367187 13.957031 0 26.859375-6.984375 34.511718-18.683594 4.394532-6.714843 6.71875-14.511718 6.71875-22.546874 0-45.460938-36.984374-82.445313-82.445312-82.445313zm0 0"/><path d="m189.058594 322.921875c-3.953125 0-7.820313-1.609375-10.613282-4.398437-2.789062-2.789063-4.398437-6.660157-4.398437-10.609376 0-3.941406 1.609375-7.8125 4.398437-10.601562 2.792969-2.789062 6.652344-4.398438 10.613282-4.398438 3.949218 0 7.808594 1.609376 10.597656 4.398438s4.390625 6.648438 4.390625 10.601562c0 3.949219-1.601563 7.820313-4.390625 10.609376-2.789062 2.789062-6.660156 4.398437-10.597656 4.398437zm0 0"/><path d="m232.785156 299.710938c-3.9375 0-7.808594-1.597657-10.597656-4.390626-2.800781-2.796874-4.402344-6.667968-4.402344-10.609374 0-3.949219 1.601563-7.808594 4.402344-10.609376 2.789062-2.789062 6.648438-4.390624 10.597656-4.390624 3.953125 0 7.820313 1.601562 10.613282 4.390624 2.789062 2.789063 4.386718 6.660157 4.386718 10.609376 0 3.949218-1.597656 7.820312-4.386718 10.609374-2.800782 2.792969-6.660157 4.390626-10.613282 4.390626zm0 0"/></g><path d="m279.207031 299.710938c-3.949219 0-7.8125-1.597657-10.609375-4.390626-2.792968-2.796874-4.390625-6.660156-4.390625-10.609374 0-3.949219 1.597657-7.808594 4.390625-10.609376 2.789063-2.789062 6.660156-4.390624 10.609375-4.390624s7.808594 1.601562 10.597657 4.390624c2.800781 2.789063 4.402343 6.660157 4.402343 10.609376 0 3.949218-1.601562 7.820312-4.402343 10.609374-2.789063 2.792969-6.660157 4.390626-10.597657 4.390626zm0 0" fill="#b24d00"/><path d="m322.945312 322.921875c-3.949218 0-7.816406-1.609375-10.609374-4.398437-2.789063-2.789063-4.398438-6.660157-4.398438-10.609376 0-3.941406 1.609375-7.8125 4.398438-10.601562 2.792968-2.789062 6.652343-4.398438 10.609374-4.398438 3.949219 0 7.8125 1.609376 10.601563 4.398438s4.390625 6.660156 4.390625 10.601562c0 3.949219-1.601562 7.820313-4.390625 10.609376-2.789063 2.789062-6.660156 4.398437-10.601563 4.398437zm0 0" fill="#b24d00"/><path d="m431.664062 124.042969c0-47.1875-110.417968-59.777344-175.664062-59.777344v30c38.769531 0 75.773438 3.957031 104.195312 11.136719 28.984376 7.324218 39.285157 15.570312 41.257813 18.644531-1.972656 3.070313-12.273437 11.316406-41.257813 18.640625-28.425781 7.179688-65.429687 11.132812-104.195312 11.132812v30c65.246094 0 175.664062-12.589843 175.664062-59.777343zm0 0" fill="#00abe9"/><path d="m272.34375 456.011719c6.90625 2.046875 14.730469 4.367187 24.871094 4.367187 13.957031 0 26.859375-6.984375 34.511718-18.683594 4.394532-6.714843 6.71875-14.511718 6.71875-22.546874 0-45.460938-36.984374-82.445313-82.445312-82.445313v116.179687c5.785156 0 10.679688 1.449219 16.34375 3.128907zm0 0" fill="#b24d00"/></svg>