<svg viewBox="0 -80 512.00048 512" xmlns="http://www.w3.org/2000/svg"><path d="m423.742188 1.773438c-4.875-2.605469-10.792969-2.324219-15.398438.746093l-47.878906 31.921875c-30.117188-22.28125-66.789063-34.441406-104.464844-34.441406-37.667969 0-74.339844 12.160156-104.457031 34.441406l-47.882813-31.921875c-4.605468-3.070312-10.523437-3.355469-15.398437-.742187-4.878907 2.609375-7.921875 7.691406-7.921875 13.222656v160.664062c0 96.859376 78.800781 175.664063 175.664062 175.664063 96.859375 0 175.664063-78.804687 175.664063-175.664063v-160.664062c-.003907-5.53125-3.046875-10.613281-7.925781-13.226562zm0 0" fill="#fcdb2c"/><path d="m423.742188 1.773438c-4.875-2.605469-10.792969-2.324219-15.398438.746093l-47.878906 31.921875c-30.113282-22.277344-66.773438-34.4335935-104.4375-34.441406v351.328125c96.851562-.015625 175.636718-78.8125 175.636718-175.664063v-160.664062c0-5.53125-3.042968-10.613281-7.921874-13.226562zm0 0" fill="#ff9f04"/><path d="m191.738281 150.496094c-3.949219 0-7.820312-1.601563-10.609375-4.390625-2.789062-2.789063-4.390625-6.660157-4.390625-10.609375 0-3.949219 1.601563-7.820313 4.390625-10.601563 2.789063-2.800781 6.652344-4.398437 10.609375-4.398437 3.953125 0 7.8125 1.601562 10.601563 4.398437 2.800781 2.792969 4.398437 6.652344 4.398437 10.601563 0 3.949218-1.597656 7.820312-4.398437 10.609375-2.789063 2.792969-6.660156 4.390625-10.601563 4.390625zm0 0" fill="#913f02"/><path d="m320.265625 150.496094c-3.949219 0-7.808594-1.601563-10.609375-4.390625-2.789062-2.789063-4.386719-6.660157-4.386719-10.609375 0-3.949219 1.597657-7.808594 4.386719-10.601563 2.792969-2.800781 6.660156-4.398437 10.609375-4.398437s7.820313 1.601562 10.609375 4.398437c2.792969 2.792969 4.390625 6.652344 4.390625 10.601563 0 3.949218-1.597656 7.820312-4.390625 10.609375-2.796875 2.792969-6.660156 4.390625-10.609375 4.390625zm0 0" fill="#3c1b13"/><path d="m296.164062 270.996094c-15.8125 0-30.09375-6.6875-40.164062-17.390625-10.066406 10.699219-24.351562 17.390625-40.164062 17.390625-30.421876 0-55.167969-24.746094-55.167969-55.167969 0-8.285156 6.714843-15 15-15 8.285156 0 15 6.714844 15 15 0 13.878906 11.289062 25.167969 25.167969 25.167969 13.875 0 25.164062-11.289063 25.164062-25.167969 0-8.285156 6.714844-15 15-15s15 6.714844 15 15c0 13.878906 11.289062 25.167969 25.164062 25.167969 13.878907 0 25.167969-11.289063 25.167969-25.167969 0-8.285156 6.714844-15 15-15 8.28125 0 15 6.714844 15 15 0 30.421875-24.746093 55.167969-55.167969 55.167969zm0 0" fill="#913f02"/><path d="m336.332031 200.828125c-8.285156 0-15 6.714844-15 15 0 13.878906-11.289062 25.167969-25.167969 25.167969-13.875 0-25.164062-11.289063-25.164062-25.167969 0-8.273437-6.703125-14.984375-14.976562-15v52.804687c10.066406 10.683594 24.339843 17.363282 40.140624 17.363282 30.421876 0 55.167969-24.746094 55.167969-55.167969 0-8.285156-6.714843-15-15-15zm0 0" fill="#552003"/><path d="m286.367188 179.984375c-4.140626-7.171875-11.914063-11.285156-21.320313-11.285156h-16.070313c-9.40625 0-17.175781 4.113281-21.320312 11.289062-4.140625 7.175781-3.816406 15.960938.886719 24.105469l8.035156 13.921875c4.707031 8.144531 12.152344 12.8125 20.433594 12.8125 8.285156 0 15.730469-4.667969 20.4375-12.816406l8.035156-13.917969c4.703125-8.148438 5.023437-16.933594.882813-24.109375zm0 0" fill="#ff5b5b"/><path d="m138.222656 201.949219-117.527344-48.195313c-7.664062-3.144531-16.425781.519532-19.570312 8.183594-3.140625 7.664062.523438 16.429688 8.1875 19.570312l47.113281 19.320313h-41.421875c-8.285156 0-14.99999975 6.714844-14.99999975 15s6.71484375 15 14.99999975 15h41.421875l-47.113281 19.324219c-7.664062 3.144531-11.328125 11.90625-8.1875 19.570312 2.382812 5.800782 7.980469 9.3125 13.886719 9.3125 1.894531 0 3.824219-.363281 5.683593-1.128906l117.527344-48.199219c5.632813-2.308593 9.308594-7.792969 9.308594-13.878906s-3.675781-11.566406-9.308594-13.878906zm0 0" fill="#913f02"/><path d="m502.6875 250.152344-47.113281-19.324219h41.421875c8.285156 0 15-6.714844 15-15 0-8.28125-6.714844-15-15-15h-41.414063l47.105469-19.316406c7.664062-3.144531 11.332031-11.90625 8.1875-19.570313-3.144531-7.664062-11.90625-11.324218-19.570312-8.1875l-117.316407 48.113282c-2.054687.808593-3.945312 2.070312-5.511719 3.757812-4.253906 4.582031-5.21875 11.324219-2.421874 16.914062 1.71875 3.433594 4.585937 5.933594 7.917968 7.25l117.332032 48.117188c1.863281.765625 3.789062 1.128906 5.6875 1.128906 5.902343 0 11.503906-3.511718 13.882812-9.3125 3.144531-7.664062-.523438-16.425781-8.1875-19.570312zm0 0" fill="#552003"/><path d="m286.367188 179.984375c-4.140626-7.171875-11.914063-11.285156-21.320313-11.285156h-9.019531v62.09375c.328125.015625.652344.035156.984375.035156 8.285156 0 15.730469-4.667969 20.4375-12.816406l8.035156-13.917969c4.703125-8.148438 5.023437-16.933594.882813-24.109375zm0 0" fill="#ff3980"/></svg>