<svg viewBox="0 -33 512 512" xmlns="http://www.w3.org/2000/svg"><path d="m354.972656 227.035156-120.214844-120.214844c-10.386718-10.390624-24.238281-16.109374-39.007812-16.109374-14.765625 0-28.621094 5.722656-39.007812 16.109374l-120.214844 120.214844c-4.289063 4.289063-5.574219 10.742188-3.253906 16.347656 2.324218 5.605469 7.792968 9.257813 13.859374 9.257813h110.34375l28.363282 70.90625c2.277344 5.691406 7.792968 9.429687 13.925781 9.429687h112.464844c6.136719 0 11.652343-3.734374 13.929687-9.429687l32.132813-80.335937c2.230469-5.570313.921875-11.933594-3.320313-16.175782zm0 0" fill="#fdf6c8"/><path d="m354.972656 227.035156-120.214844-120.214844c-10.386718-10.390624-24.238281-16.109374-39.007812-16.109374v241.707031c1.289062.355469 2.636719.558593 4.015625.558593h112.46875c6.132813 0 11.648437-3.734374 13.925781-9.429687l32.132813-80.335937c2.230469-5.570313.921875-11.933594-3.320313-16.175782zm0 0" fill="#ffde8d"/><path d="m464.863281 102.140625h-16.558593v-58.449219c0-24.089844-19.597657-43.691406-43.691407-43.691406-24.089843 0-43.6875 19.601562-43.6875 43.691406v58.449219h-16.5625c-8.28125 0-15 6.714844-15 15v120.5c0 8.285156 6.71875 15 15 15h120.5c8.285157 0 15-6.714844 15-15v-120.5c0-8.285156-6.714843-15-15-15zm0 0" fill="#7fe881"/><path d="m464.863281 102.140625h-16.558593v-58.449219c0-24.089844-19.597657-43.691406-43.691407-43.691406v252.640625h60.25c8.285157 0 15-6.714844 15-15v-120.5c0-8.285156-6.714843-15-15-15zm0 0" fill="#1fbf66"/><path d="m497 222.640625h-152.636719c-6.132812 0-11.644531 3.734375-13.925781 9.429687l-28.359375 70.902344h-92.15625l-28.359375-70.902344c-2.277344-5.695312-7.792969-9.429687-13.929688-9.429687h-152.632812c-8.285156 0-15 6.714844-15 15s6.714844 15 15 15h19.425781l23.441407 140.644531c2.339843 14.039063 9.996093 27.164063 21.5625 36.960938 11.566406 9.800781 25.773437 15.195312 40.003906 15.195312h273.132812c14.230469 0 28.4375-5.394531 40.003906-15.195312 11.566407-9.796875 19.222657-22.921875 21.5625-36.960938l23.441407-140.644531h19.425781c8.28125 0 15-6.714844 15-15s-6.71875-15-15-15zm0 0" fill="#005285"/><path d="m497 222.640625h-152.636719c-6.132812 0-11.644531 3.734375-13.925781 9.429687l-28.359375 70.902344h-46.078125v142.46875h136.566406c14.230469 0 28.4375-5.394531 40.003906-15.195312 11.5625-9.796875 19.222657-22.921875 21.5625-36.960938l23.4375-140.644531h19.429688c8.28125 0 15-6.714844 15-15s-6.71875-15-15-15zm0 0" fill="#00215a"/></svg>