<svg height="512pt" viewBox="-70 0 512 512.00039" width="512pt" xmlns="http://www.w3.org/2000/svg"><path d="m61.398438 91.632812v167.648438c0 4.601562 3.734374 8.335938 8.335937 8.335938h137.886719c57.039062 0 103.277344-46.238282 103.277344-103.277344v-72.707032c0-53.882812-46.277344-96.136718-99.941407-91.246093h-49.621093c-53.664063-4.890625-99.9375 37.359375-99.9375 91.246093zm0 0" fill="#fdbd37"/><path d="m210.960938.386719h-35.523438c46.171875 4.21875 83.140625 43.082031 83.140625 91.246093v72.707032c0 57.035156-46.238281 103.277344-103.277344 103.277344h52.320313c57.039062 0 103.277344-46.242188 103.277344-103.277344v-72.707032c0-53.886718-46.273438-96.136718-99.9375-91.246093zm0 0" fill="#fa9a39"/><path d="m338.402344 334.636719c-29.132813-14.785157-59.878906-25.066407-91.253906-30.851563-12.148438-2.238281-20.949219-12.855468-20.949219-25.207031v-49.003906h-80.101563v49.003906c0 12.355469-8.800781 22.96875-20.949218 25.207031-31.375 5.785156-62.121094 16.066406-91.253907 30.851563-20.792969 10.558593-33.894531 31.902343-33.894531 55.222656v107.859375c0 7.886719 6.394531 14.28125 14.28125 14.28125h343.734375c7.886719 0 14.28125-6.394531 14.28125-14.28125v-107.859375c0-23.320313-13.101563-44.664063-33.894531-55.222656zm0 0" fill="#fed6a6"/><path d="m338.402344 334.636719c-29.132813-14.785157-59.878906-25.066407-91.253906-30.851563-12.148438-2.238281-20.949219-12.855468-20.949219-25.207031v-49.003906h-52.320313v75.410156c0 12.355469 8.800782 22.96875 20.949219 25.207031 31.375 5.785156 62.121094 16.066406 91.253906 30.851563 20.792969 10.558593 33.894531 31.902343 33.894531 55.222656v95.734375h38.039063c7.886719 0 14.28125-6.394531 14.28125-14.28125v-107.859375c0-23.320313-13.101563-44.664063-33.894531-55.222656zm0 0" fill="#efc79c"/><path d="m98.320312 116.429688h-14.558593c-12.359375 0-22.363281 10.019531-22.363281 22.375v10.582031c0 12.355469 10.003906 22.375 22.363281 22.375h14.558593zm0 0" fill="#fed6a6"/><path d="m273.972656 116.429688h14.5625c12.355469 0 22.363282 10.019531 22.363282 22.375v10.582031c0 12.355469-10.007813 22.375-22.363282 22.375h-14.5625zm0 0" fill="#fed6a6"/><path d="m216.183594 60.785156c-23.339844 56.269532-98.421875 48.507813-119.085938 45.210938-2.78125-.445313-5.296875 1.703125-5.289062 4.515625l.285156 73.65625c0 62.53125 65.636719 91.972656 94.054688 92.578125 28.417968-.605469 94.054687-30.050782 94.054687-92.578125l.289063-94.347657c.007812-2.4375-2.121094-4.308593-4.539063-4.019531-7.929687.945313-26.070313-.855469-53.265625-26.429687-2.0625-1.9375-5.417969-1.199219-6.503906 1.414062zm0 0" fill="#ffe3c2"/><path d="m275.953125 85.800781c-7.394531.882813-23.671875-.632812-47.882813-21.574219l-.171874 119.941407c0 47.171875-37.351563 75.507812-67.902344 86.847656 9.945312 3.691406 19.171875 5.582031 26.152344 5.734375 28.417968-.609375 94.058593-30.050781 94.058593-92.578125l.285157-94.351563c.007812-2.4375-2.121094-4.308593-4.539063-4.019531zm0 0" fill="#f7d6b5"/><path d="m194.515625 191.660156h-6.929687c-6.082032 0-11.03125-4.953125-11.03125-11.035156v-21.03125c0-4.265625 3.457031-7.726562 7.722656-7.726562 4.269531 0 7.726562 3.460937 7.726562 7.726562v16.613281h2.511719c4.265625 0 7.726563 3.457031 7.726563 7.722657.003906 4.269531-3.457032 7.730468-7.726563 7.730468zm0 0" fill="#d08f61"/><path d="m186.152344 237.300781c-16.058594 0-30.613282-7.234375-37.980469-18.875-2.28125-3.605469-1.207031-8.378906 2.398437-10.660156 3.605469-2.28125 8.378907-1.207031 10.660157 2.398437 4.492187 7.097657 14.273437 11.683594 24.921875 11.683594 10.648437 0 20.429687-4.585937 24.921875-11.683594 2.28125-3.605468 7.054687-4.679687 10.660156-2.398437s4.679687 7.054687 2.398437 10.660156c-7.367187 11.640625-21.921874 18.875-37.980468 18.875zm0 0" fill="#c35f58"/><path d="m234.296875 157.339844c-4.269531 0-7.726563-3.460938-7.726563-7.726563v-6.140625c0-4.265625 3.457032-7.726562 7.726563-7.726562 4.265625 0 7.726563 3.460937 7.726563 7.726562v6.140625c0 4.265625-3.460938 7.726563-7.726563 7.726563zm0 0" fill="#844535"/><path d="m138 157.339844c-4.265625 0-7.726562-3.460938-7.726562-7.726563v-6.140625c0-4.265625 3.460937-7.726562 7.726562-7.726562s7.726562 3.460937 7.726562 7.726562v6.140625c0 4.265625-3.460937 7.726563-7.726562 7.726563zm0 0" fill="#844535"/><path d="m338.402344 334.636719c-19.90625-10.105469-40.570313-18.101563-61.675782-24-11.578124 18.59375-48.480468 32.191406-92.222656 32.191406-43.117187 0-79.59375-13.214844-91.714844-31.402344-20.136718 5.816407-39.859374 13.550781-58.890624 23.210938-20.796876 10.558593-33.898438 31.898437-33.898438 55.21875v107.863281c0 7.886719 6.394531 14.28125 14.28125 14.28125h343.734375c7.886719 0 14.28125-6.394531 14.28125-14.28125v-107.863281c0-23.316407-13.101563-44.660157-33.894531-55.21875zm0 0" fill="#80c56e"/><path d="m338.402344 334.636719c-2.238282-1.132813-4.484375-2.234375-6.738282-3.316407-.632812-.300781-1.265624-.597656-1.898437-.898437-1.769531-.835937-3.542969-1.65625-5.324219-2.457031-.550781-.25-1.097656-.5-1.648437-.746094-2.308594-1.023438-4.621094-2.027344-6.941407-3-.234374-.09375-.464843-.1875-.699218-.285156-2.113282-.875-4.230469-1.726563-6.355469-2.558594-.546875-.214844-1.089844-.425781-1.636719-.636719-2.101562-.808593-4.207031-1.601562-6.324218-2.367187-.253907-.09375-.507813-.191406-.761719-.28125-2.453125-.882813-4.914063-1.734375-7.378907-2.558594-.269531-.089844-.539062-.175781-.804687-.265625-2.175781-.71875-4.355469-1.414063-6.539063-2.089844-.445312-.136719-.890624-.273437-1.335937-.410156-2.421875-.734375-4.851563-1.453125-7.285156-2.132813-7.453125 11.964844-25.402344 21.855469-48.902344 27.390626 19.917969 5.796874 39.421875 13.460937 58.253906 23.019531 20.792969 10.554687 33.894531 31.898437 33.894531 55.21875v95.738281h38.039063c7.886719 0 14.28125-6.394531 14.28125-14.28125v-107.859375c0-23.320313-13.101563-44.664063-33.894531-55.222656zm0 0" fill="#70b25d"/><path d="m226.800781 70.816406-28.957031 1.1875c-10.09375.414063-17.191406-9.808594-13.273438-19.121094l10.523438-25c3.917969-9.3125 16.195312-11.386718 22.953125-3.878906l19.390625 21.535156zm0 0" fill="#fc6a58"/><path d="m247.882812 79.691406 19.390626 21.535156c6.761718 7.507813 19.035156 5.4375 22.953124-3.875l10.523438-25c3.917969-9.3125-3.179688-19.539062-13.273438-19.125l-28.953124 1.1875zm0 0" fill="#fc6a58"/><path d="m244.738281 80.820312-16.550781-6.964843c-2.054688-.867188-3.019531-3.234375-2.15625-5.292969l9.261719-21.996094c.863281-2.058594 3.230469-3.023437 5.289062-2.15625l16.550781 6.964844c2.054688.867188 3.019532 3.234375 2.15625 5.292969l-9.257812 21.996093c-.867188 2.058594-3.234375 3.023438-5.292969 2.15625zm0 0" fill="#e35052"/><g fill="#5d9b49"><path d="m55.414062 411.574219c-4.265624 0-7.726562 3.457031-7.726562 7.726562v92.699219h15.453125v-92.699219c0-4.269531-3.460937-7.726562-7.726563-7.726562zm0 0"/><path d="m316.882812 411.574219c-4.269531 0-7.726562 3.457031-7.726562 7.726562v92.699219h15.453125v-92.699219c0-4.269531-3.460937-7.726562-7.726563-7.726562zm0 0"/></g></svg>