
<svg viewBox="0 0 512 512" xmlns="http://www.w3.org/2000/svg"><path d="m437.019531 74.980469c-48.351562-48.351563-112.640625-74.980469-181.019531-74.980469s-132.667969 26.628906-181.019531 74.980469c-48.351563 48.351562-74.980469 112.640625-74.980469 181.019531s26.628906 132.667969 74.980469 181.019531c48.351562 48.351563 112.640625 74.980469 181.019531 74.980469s132.667969-26.628906 181.019531-74.980469c48.351563-48.351562 74.980469-112.640625 74.980469-181.019531s-26.628906-132.667969-74.980469-181.019531zm0 0" fill="#7fe881"/><path d="m437.019531 74.980469c-48.351562-48.351563-112.640625-74.980469-181.019531-74.980469v512c68.378906 0 132.667969-26.628906 181.019531-74.980469 48.351563-48.351562 74.980469-112.640625 74.980469-181.019531s-26.628906-132.667969-74.980469-181.019531zm0 0" fill="#1fbf66"/><path d="m256 190.664062c-72.722656 0-142.269531-31.097656-190.800781-85.316406-5.523438-6.171875-5-15.65625 1.171875-21.183594 6.171875-5.523437 15.652344-5 21.179687 1.175782 42.851563 47.871094 104.25 75.324218 168.449219 75.324218s125.597656-27.453124 168.449219-75.324218c5.523437-6.175782 15.007812-6.699219 21.183593-1.175782 6.171876 5.527344 6.695313 15.011719 1.171876 21.183594-48.535157 54.21875-118.082032 85.316406-190.804688 85.316406zm0 0" fill="#fdf6c8"/><path d="m435.628906 431.65625c-4.117187 0-8.21875-1.683594-11.179687-4.996094-42.851563-47.871094-104.25-75.328125-168.449219-75.328125s-125.597656 27.457031-168.445312 75.328125c-5.527344 6.171875-15.011719 6.695313-21.183594 1.171875-6.171875-5.523437-6.695313-15.007812-1.171875-21.183593 48.535156-54.21875 118.078125-85.316407 190.800781-85.316407s142.265625 31.097657 190.800781 85.320313c5.523438 6.171875 5 15.65625-1.171875 21.183594-2.863281 2.5625-6.4375 3.820312-10 3.820312zm0 0" fill="#fdf6c8"/><g fill="#ffde8d"><path d="m446.804688 105.347656c5.523437-6.171875 5-15.65625-1.171876-21.183594-6.175781-5.523437-15.65625-5-21.183593 1.175782-42.851563 47.871094-104.25 75.324218-168.449219 75.324218v30c72.722656 0 142.269531-31.097656 190.804688-85.316406zm0 0"/><path d="m256 321.332031v30c64.199219 0 125.597656 27.457031 168.449219 75.328125 2.960937 3.3125 7.0625 4.996094 11.179687 4.996094 3.5625 0 7.136719-1.261719 10-3.820312 6.171875-5.527344 6.695313-15.011719 1.171875-21.183594-48.535156-54.222656-118.078125-85.320313-190.800781-85.320313zm0 0"/></g></svg>