<?xml version="1.0"?>
<svg xmlns="http://www.w3.org/2000/svg" height="512px" viewBox="-55 0 512 512" width="512px" class=""><g><path d="m231.457031 278.796875h-13.210937v8.179687c0 17.699219-14.503906 32.101563-32.332032 32.101563-17.824218 0-32.328124-14.402344-32.328124-32.101563v-8.179687h-14.757813l47.089844 120.929687 46.585937-119.644531c-.355468-.425781-.707031-.851562-1.046875-1.285156zm0 0" fill="#64cbff" data-original="#64CBFF"/><path d="m369.40625 441.15625c4.058594 6.992188 6.296875 15.007812 6.296875 23.300781 0 1.625-.085937 3.234375-.25 4.816407 27.648437-35.863282 34.691406-84.507813 16.886719-127.382813-2.152344-5.191406-8.109375-7.652344-13.300782-5.496094-5.191406 2.152344-7.65625 8.101563-5.503906 13.289063 12.515625 30.140625 10.445313 63.664062-4.128906 91.472656zm0 0" fill="#d19546" data-original="#D19546" class=""/><path d="m71.816406 334.265625c5.195313 0 10.253906.574219 15.132813 1.632813v-57.101563h-15.050781c-11.640626 0-21.113282 9.40625-21.113282 20.972656v37.664063c6.648438-2.0625 13.710938-3.167969 21.03125-3.167969zm0 0" fill="#64cbff" data-original="#64CBFF"/><path d="m71.816406 475.03125c-7.320312 0-14.382812-1.109375-21.03125-3.167969v34.726563c0 2.984375 2.429688 5.410156 5.425782 5.410156h30.738281v-38.605469c-4.878907 1.0625-9.9375 1.636719-15.132813 1.636719zm0 0" fill="#64cbff" data-original="#64CBFF"/><path d="m261.339844 22.15625h-16.277344c-6.214844-13.082031-19.621094-22.15625-35.125-22.15625h-131.796875c-3.574219 0-6.46875 2.878906-6.46875 6.429688v126.425781c2.304687-.875 4.800781-1.378907 7.414063-1.378907h13.351562v-53.683593c0-2.316407 1.902344-4.203125 4.238281-4.203125h178.480469c2.335938 0 4.238281 1.886718 4.238281 4.203125v53.683593h13.355469c2.613281 0 5.105469.503907 7.410156 1.378907v-72.136719c.003906-21.265625-17.410156-38.5625-38.820312-38.5625zm0 0" fill="#083e63" data-original="#083E63"/><path d="m185.917969 274.503906c-11.738281 0-22.972657-2.164062-33.332031-6.105468v18.578124c0 18.28125 14.925781 33.101563 33.332031 33.101563s33.332031-14.820313 33.332031-33.101563v-18.578124c-10.359375 3.941406-21.59375 6.105468-33.332031 6.105468zm0 0" fill="#f7c39f" data-original="#F7C39F"/><path d="m92.4375 181.671875v-51.195313h-13.351562c-12.0625 0-21.84375 9.714844-21.84375 21.695313v18.859375c0 11.980469 9.78125 21.695312 21.84375 21.695312h14.019531c-.433594-3.625-.667969-7.316406-.667969-11.054687zm0 0" fill="#f7c39f" data-original="#F7C39F"/><path d="m292.75 130.476562h-13.355469v51.191407c0 3.742187-.230469 7.429687-.664062 11.058593h14.019531c12.0625 0 21.839844-9.714843 21.839844-21.695312v-18.859375c0-11.980469-9.777344-21.695313-21.839844-21.695313zm0 0" fill="#f7c39f" data-original="#F7C39F"/><path d="m275.15625 72.589844h-178.476562c-2.898438 0-5.242188 2.328125-5.242188 5.203125v103.878906c0 51.738281 42.382812 93.832031 94.480469 93.832031 13.929687 0 27.160156-3.011718 39.074219-8.40625-3.152344-8.617187-3.570313-18.160156-.867188-27.28125.105469-.355468.296875-.679687.558594-.9375.261718-.261718.585937-.457031.933594-.558594 4.03125-1.191406 8.195312-1.796874 12.378906-1.796874 7.277344 0 14.277344 1.789062 20.515625 5.132812 13.65625-16.273438 21.886719-37.191406 21.886719-59.984375v-103.878906c-.003907-2.875-2.347657-5.203125-5.242188-5.203125zm0 0" fill="#ffd5b3" data-original="#FFD5B3"/><path d="m194.804688 197.234375h-12.621094c-6.980469 0-12.65625-5.675781-12.65625-12.648437v-34.523438c0-4.140625 3.359375-7.5 7.5-7.5 4.144531 0 7.5 3.359375 7.5 7.5v32.171875h10.277344c4.140624 0 7.5 3.359375 7.5 7.5 0 4.144531-3.359376 7.5-7.5 7.5zm0 0" fill="#634229" data-original="#634229"/><path d="m157.328125 131.636719c-1.910156 0-3.820313-.726563-5.285156-2.179688-8.347657-8.289062-21.929688-8.292969-30.277344 0-2.9375 2.921875-7.6875 2.90625-10.605469-.035156-2.921875-2.9375-2.902344-7.6875.035156-10.605469 14.175782-14.082031 37.242188-14.082031 51.417969 0 2.941407 2.917969 2.957031 7.667969.035157 10.605469-1.464844 1.476563-3.394532 2.214844-5.320313 2.214844zm0 0" fill="#083e63" data-original="#083E63"/><path d="m214.503906 131.636719c-1.929687 0-3.855468-.738281-5.320312-2.214844-2.921875-2.941406-2.902344-7.6875.035156-10.605469 14.175781-14.078125 37.242188-14.082031 51.421875-.003906 2.9375 2.917969 2.957031 7.667969.039063 10.609375-2.921876 2.9375-7.667969 2.953125-10.609376.035156-8.351562-8.292969-21.933593-8.289062-30.28125 0-1.464843 1.453125-3.375 2.179688-5.285156 2.179688zm0 0" fill="#083e63" data-original="#083E63"/><path d="m138.535156 170.148438c-4.144531 0-7.5-3.359376-7.5-7.5v-20.925782c0-4.140625 3.355469-7.5 7.5-7.5 4.140625 0 7.5 3.359375 7.5 7.5v20.925782c0 4.140624-3.359375 7.5-7.5 7.5zm0 0" fill="#634229" data-original="#634229"/><path d="m233.300781 170.148438c-4.144531 0-7.5-3.359376-7.5-7.5v-20.925782c0-4.140625 3.355469-7.5 7.5-7.5 4.140625 0 7.5 3.359375 7.5 7.5v20.925782c0 4.140624-3.359375 7.5-7.5 7.5zm0 0" fill="#634229" data-original="#634229"/><path d="m185.917969 245.074219c-18.984375 0-34.433594-15.433594-34.433594-34.402344 0-4.144531 3.355469-7.5 7.5-7.5s7.5 3.355469 7.5 7.5c0 10.699219 8.71875 19.402344 19.433594 19.402344 10.714843 0 19.433593-8.703125 19.433593-19.402344 0-4.144531 3.359376-7.5 7.5-7.5 4.144532 0 7.5 3.355469 7.5 7.5 0 18.96875-15.449218 34.402344-34.433593 34.402344zm0 0" fill="#634229" data-original="#634229"/><path d="m266.722656 511c-25.695312 0-46.597656-20.878906-46.597656-46.542969 0-15.179687 7.457031-29.445312 19.949219-38.167969 3.503906-2.445312 5.597656-6.457031 5.597656-10.726562v-27.535156c0-16.160156 7.351563-31.160156 20.171875-41.152344l1.214844-.945312-1.355469-.726563c-18.957031-10.105469-30.273437-27.804687-30.273437-47.34375 0-4.140625.539062-8.3125 1.601562-12.410156l.15625-.585938-.453125-.40625c-.566406-.507812-1.132813-1.019531-1.675781-1.5625-1.160156-1.160156-2.226563-2.386719-3.234375-3.652343l-45.90625 117.894531-46.078125-118.339844h-54.476563v56.773437c32.589844 6.300782 57.273438 34.871094 57.273438 69.078126 0 34.203124-24.683594 62.773437-57.273438 69.074218v38.277344h201.109375v-1zm0 0" fill="#c5ccd3" data-original="#C5CCD3"/><path d="m197.261719 433.191406c0-6.257812-5.078125-11.332031-11.34375-11.332031s-11.34375 5.074219-11.34375 11.332031c0 6.257813 5.078125 11.332032 11.34375 11.332032s11.34375-5.074219 11.34375-11.332032zm0 0" fill="#424f59" data-original="#424F59"/><path d="m197.261719 484.699219c0-6.257813-5.078125-11.332031-11.34375-11.332031s-11.34375 5.074218-11.34375 11.332031c0 6.257812 5.078125 11.332031 11.34375 11.332031s11.34375-5.074219 11.34375-11.332031zm0 0" fill="#424f59" data-original="#424F59"/><path d="m356.328125 425.46875c-3.238281-2.261719-5.167969-5.960938-5.167969-9.90625v-27.535156c0-17.429688-8.4375-32.925782-21.449218-42.632813-9.320313 4.894531-20.191407 7.714844-31.796876 7.714844-11.605468 0-22.476562-2.820313-31.796874-7.714844-13.007813 9.707031-21.445313 25.203125-21.445313 42.632813v27.535156c0 3.945312-1.929687 7.644531-5.167969 9.90625-12.761718 8.90625-20.378906 23.480469-20.378906 38.988281 0 26.214844 21.355469 47.542969 47.597656 47.542969h62.386719c26.242187 0 47.59375-21.328125 47.59375-47.542969 0-15.507812-7.617187-30.082031-20.375-38.988281zm0 0" fill="#b2762f" data-original="#B2762F" class=""/><path d="m269.542969 248.652344c-.035157-.035156-.066407-.074219-.105469-.113282-11.539062-11.527343-28.433594-15.8125-44.101562-11.179687-.519532.152344-.984376.4375-1.359376.8125-.375.371094-.65625.839844-.8125 1.359375-4.636718 15.652344-.351562 32.539062 11.1875 44.070312.824219.824219 1.683594 1.597657 2.558594 2.347657 4.0625-16.285157 16.265625-29.882813 32.632813-37.296875zm0 0" fill="#b2762f" data-original="#B2762F" class=""/><path d="m372.664062 239.53125c-.152343-.519531-.433593-.988281-.808593-1.359375-.375-.375-.84375-.65625-1.363281-.8125-15.667969-4.632813-32.558594-.347656-44.101563 11.179687-.035156.039063-.070313.078126-.105469.117188 16.367188 7.410156 28.570313 21.007812 32.636719 37.289062.875-.746093 1.730469-1.519531 2.554687-2.34375 11.539063-11.53125 15.828126-28.417968 11.1875-44.070312zm0 0" fill="#b2762f" data-original="#B2762F" class=""/><g fill="#d19546"><path d="m361.398438 297.859375c0-31.066406-28.421876-56.253906-63.484376-56.253906-35.058593 0-63.484374 25.1875-63.484374 56.253906s28.425781 56.25 63.484374 56.25c35.0625 0 63.484376-25.183594 63.484376-56.25zm0 0" data-original="#000000" class=""/><path d="m289.066406 491.496094c-2.878906 0-5.234375-4.632813-5.234375-10.300782v-74.535156c0-5.664062-4.644531-10.300781-10.316406-10.300781h-5.671875c-5.671875 0-10.3125 4.636719-10.3125 10.300781v74.535156c0 5.667969-2.398438 10.300782-5.335938 10.300782-2.933593 0-5.332031 4.613281-5.332031 10.25 0 5.640625 4.640625 10.253906 10.3125 10.253906h26.816407c5.671874 0 10.3125-4.613281 10.3125-10.253906 0-5.636719-2.355469-10.25-5.238282-10.25zm0 0" data-original="#000000" class=""/><path d="m343.730469 491.496094c-2.882813 0-5.238281-4.632813-5.238281-10.300782v-74.535156c0-5.664062-4.640626-10.300781-10.3125-10.300781h-5.671876c-5.671874 0-10.316406 4.636719-10.316406 10.300781v74.535156c0 5.667969-2.398437 10.300782-5.332031 10.300782s-5.335937 4.613281-5.335937 10.25c0 5.640625 4.640624 10.253906 10.316406 10.253906h26.8125c5.671875 0 10.316406-4.613281 10.316406-10.253906-.003906-5.636719-2.359375-10.25-5.238281-10.25zm0 0" data-original="#000000" class=""/></g><path d="m278.574219 293.035156c-4.140625 0-7.5-3.355468-7.5-7.5v-8.796875c0-4.140625 3.359375-7.5 7.5-7.5 4.144531 0 7.5 3.359375 7.5 7.5v8.796875c0 4.144532-3.355469 7.5-7.5 7.5zm0 0" fill="#634229" data-original="#634229"/><path d="m317.253906 293.035156c-4.140625 0-7.5-3.355468-7.5-7.5v-8.796875c0-4.140625 3.359375-7.5 7.5-7.5 4.144532 0 7.5 3.359375 7.5 7.5v8.796875c0 4.144532-3.355468 7.5-7.5 7.5zm0 0" fill="#634229" data-original="#634229"/><path d="m308.386719 331.007812c-3.792969 0-7.410157-1.101562-10.472657-3.074218-3.066406 1.972656-6.683593 3.074218-10.472656 3.074218-10.671875 0-19.351562-8.675781-19.351562-19.335937 0-4.144531 3.359375-7.5 7.5-7.5 4.144531 0 7.5 3.355469 7.5 7.5 0 2.390625 1.953125 4.335937 4.351562 4.335937 1.613282 0 3.089844-.890624 3.847656-2.320312 1.304688-2.449219 3.851563-3.984375 6.625-3.984375 2.777344.003906 5.324219 1.535156 6.625 3.984375.757813 1.429688 2.230469 2.320312 3.847657 2.320312 2.394531 0 4.347656-1.945312 4.347656-4.335937 0-4.144531 3.359375-7.5 7.5-7.5 4.144531 0 7.5 3.355469 7.5 7.5 0 10.660156-8.679687 19.335937-19.347656 19.335937zm0 0" fill="#634229" data-original="#634229"/><path d="m143.636719 404.648438c0 39.421874-32.148438 71.382812-71.820313 71.382812-39.664062 0-71.816406-31.960938-71.816406-71.382812 0-39.429688 32.152344-71.386719 71.816406-71.386719 39.671875.003906 71.820313 31.960937 71.820313 71.386719zm0 0" fill="#fcdb67" data-original="#FCDB67"/><path d="m46.988281 401.628906c-4.140625 0-7.5-3.359375-7.5-7.5v-7.230468c0-4.140626 3.359375-7.5 7.5-7.5 4.144531 0 7.5 3.359374 7.5 7.5v7.230468c0 4.140625-3.355469 7.5-7.5 7.5zm0 0" fill="#dd7814" data-original="#DD7814"/><path d="m93.558594 402c-4.144532 0-7.5-3.355469-7.5-7.5v-7.226562c0-4.144532 3.355468-7.5 7.5-7.5 4.144531 0 7.5 3.355468 7.5 7.5v7.226562c0 4.144531-3.355469 7.5-7.5 7.5zm0 0" fill="#dd7814" data-original="#DD7814"/><path d="m71.816406 451.703125c-17.292968 0-31.367187-14.007813-31.367187-31.222656 0-4.140625 3.359375-7.5 7.5-7.5 4.144531 0 7.5 3.359375 7.5 7.5 0 8.945312 7.34375 16.222656 16.367187 16.222656 9.027344 0 16.371094-7.277344 16.371094-16.222656 0-4.140625 3.355469-7.5 7.5-7.5 4.140625 0 7.5 3.359375 7.5 7.5 0 17.214843-14.074219 31.222656-31.371094 31.222656zm0 0" fill="#dd7814" data-original="#DD7814"/></g> </svg>
